<svg width="150" height="29" viewBox="0 0 150 29" fill="none" xmlns="http://www.w3.org/2000/svg">
<path d="M5.07993 16.5347C4.46015 16.5347 3.97319 16.4683 3.61903 16.3355C3.26488 16.2026 2.98819 16.0256 2.78898 15.8042C2.6119 15.5607 2.50123 15.2951 2.45696 15.0074C2.41269 14.7196 2.39055 14.4097 2.39055 14.0777V2.78898C2.39055 2.23561 2.45696 1.79292 2.58977 1.4609C2.74471 1.12887 2.94392 0.88539 3.18741 0.730448C3.45302 0.553369 3.74077 0.442695 4.05066 0.398426C4.38268 0.354156 4.72577 0.332021 5.07993 0.332021H23.9055C24.4589 0.332021 24.9016 0.398426 25.2336 0.531235C25.5656 0.641909 25.8202 0.796852 25.9973 0.996065C26.1744 1.19528 26.285 1.42769 26.3293 1.69331C26.3957 1.95893 26.4289 2.23561 26.4289 2.52336C26.4289 2.76685 26.3957 3.01033 26.3293 3.25381C26.285 3.49729 26.1744 3.72971 25.9973 3.95106C25.8202 4.1724 25.5656 4.34948 25.2336 4.48229C24.9016 4.6151 24.4589 4.6815 23.9055 4.6815H7.7693V6.242H23.9055C24.4589 6.242 24.9016 6.30841 25.2336 6.44121C25.5656 6.55189 25.8202 6.70683 25.9973 6.90604C26.1744 7.10526 26.285 7.33767 26.3293 7.60329C26.3957 7.84677 26.4289 8.11239 26.4289 8.40014C26.4289 8.64362 26.3957 8.88711 26.3293 9.13059C26.285 9.37407 26.1744 9.60649 25.9973 9.82783C25.8202 10.027 25.5656 10.1931 25.2336 10.3259C24.9016 10.4587 24.4589 10.5251 23.9055 10.5251H7.7693V12.1852H24.3372C24.8905 12.1852 25.3332 12.2627 25.6653 12.4176C25.9973 12.5504 26.2518 12.7275 26.4289 12.9488C26.606 13.148 26.7167 13.3805 26.7609 13.6461C26.8273 13.9117 26.8605 14.1552 26.8605 14.3765C26.8605 14.6643 26.8273 14.941 26.7609 15.2066C26.7167 15.4501 26.606 15.6714 26.4289 15.8706C26.2518 16.0698 25.9973 16.2358 25.6653 16.3687C25.3332 16.4793 24.8905 16.5347 24.3372 16.5347H5.07993ZM14.5757 28.4874C14.2216 28.4874 13.8785 28.4432 13.5465 28.3546C13.2366 28.2661 12.9488 28.1111 12.6832 27.8898C12.4397 27.6685 12.2405 27.3696 12.0856 26.9933C11.9528 26.617 11.8864 26.1412 11.8864 25.5656V23.0423H3.02139C2.40162 23.0423 1.89252 22.9759 1.4941 22.8431C1.09567 22.7103 0.785784 22.5443 0.564436 22.345C0.343089 22.1237 0.188145 21.8802 0.0996064 21.6146C0.0332021 21.349 0 21.0834 0 20.8177C0 20.4857 0.0332021 20.1869 0.0996064 19.9213C0.188145 19.6335 0.343089 19.39 0.564436 19.1908C0.785784 18.9916 1.09567 18.8367 1.4941 18.726C1.89252 18.6153 2.40162 18.56 3.02139 18.56H26.0969C26.7167 18.56 27.2258 18.6153 27.6242 18.726C28.0226 18.8367 28.3325 18.9916 28.5538 19.1908C28.7752 19.39 28.9191 19.6335 28.9855 19.9213C29.074 20.1869 29.1183 20.4857 29.1183 20.8177C29.1183 21.0834 29.074 21.349 28.9855 21.6146C28.9191 21.8802 28.7752 22.1237 28.5538 22.345C28.3325 22.5443 28.0226 22.7103 27.6242 22.8431C27.2258 22.9759 26.7167 23.0423 26.0969 23.0423H17.2651V25.5656C17.2651 26.1412 17.1876 26.617 17.0327 26.9933C16.8778 27.3696 16.6785 27.6685 16.4351 27.8898C16.1916 28.1111 15.9038 28.2661 15.5718 28.3546C15.2619 28.4432 14.9299 28.4874 14.5757 28.4874Z" fill="white" fill-opacity="0.5"/>
<path d="M38.6206 28.1554C37.3368 28.1554 36.2632 28.0115 35.4 27.7238C34.5367 27.436 33.8284 27.0044 33.275 26.4289C32.7438 25.8755 32.3454 25.1783 32.0798 24.3372C31.8141 23.5182 31.6481 22.5664 31.5817 21.4818C31.5596 21.2826 31.5485 20.8177 31.5485 20.0873C31.5485 19.3347 31.5375 18.4493 31.5153 17.4311C31.5153 16.4129 31.5153 15.3283 31.5153 14.1773C31.5153 13.0263 31.5153 11.9417 31.5153 10.9235C31.5375 9.90531 31.5485 9.03098 31.5485 8.30054C31.5485 7.57009 31.5596 7.10526 31.5817 6.90604C31.6481 5.79931 31.8031 4.82538 32.0465 3.98426C32.3122 3.14314 32.7106 2.43482 33.2418 1.85932C33.7952 1.28382 34.5035 0.852189 35.3668 0.564437C36.23 0.25455 37.3146 0.0996071 38.6206 0.0996071C39.838 0.0996071 40.8783 0.25455 41.7416 0.564437C42.6048 0.852189 43.3131 1.28382 43.8665 1.85932C44.4199 2.43482 44.8404 3.1542 45.1282 4.01746C45.4159 4.85858 45.593 5.82144 45.6594 6.90604C45.6594 7.10526 45.6594 7.58116 45.6594 8.33374C45.6816 9.06418 45.6926 9.93851 45.6926 10.9567C45.6926 11.9749 45.6926 13.0595 45.6926 14.2105C45.7148 15.3615 45.7148 16.4461 45.6926 17.4643C45.6926 18.4825 45.6816 19.3679 45.6594 20.1205C45.6594 20.8509 45.6594 21.3047 45.6594 21.4818C45.6152 23.7174 45.0507 25.3886 43.9661 26.4953C42.9036 27.602 41.1218 28.1554 38.6206 28.1554ZM38.6206 23.6399C38.7977 23.6399 38.9747 23.6178 39.1518 23.5735C39.351 23.5514 39.5281 23.4628 39.683 23.3079C39.838 23.153 39.9708 22.9427 40.0815 22.6771C40.1921 22.3893 40.2585 21.9909 40.2807 21.4818C40.2807 21.2826 40.2807 20.8067 40.2807 20.0541C40.3028 19.2794 40.3139 18.3829 40.3139 17.3647V10.8239C40.3139 9.78356 40.3028 8.89817 40.2807 8.16773C40.2807 7.43728 40.2807 6.97245 40.2807 6.77324C40.2807 6.30841 40.2253 5.93212 40.1147 5.64436C40.0261 5.35661 39.8933 5.14633 39.7162 5.01352C39.5613 4.85858 39.3842 4.75897 39.185 4.7147C38.9858 4.67043 38.7977 4.6483 38.6206 4.6483C38.4435 4.6483 38.2553 4.6815 38.0561 4.74791C37.8791 4.79218 37.713 4.89178 37.5581 5.04673C37.4032 5.20167 37.2704 5.43408 37.1597 5.74397C37.049 6.03172 36.9826 6.40801 36.9605 6.87284C36.9383 7.07206 36.9273 7.54795 36.9273 8.30054C36.9273 9.05312 36.9162 9.93851 36.8941 10.9567C36.8941 11.9749 36.8941 13.0595 36.8941 14.2105C36.8941 15.3615 36.8941 16.4461 36.8941 17.4643C36.9162 18.4825 36.9273 19.3679 36.9273 20.1205C36.9273 20.8509 36.9383 21.3047 36.9605 21.4818C36.9605 21.9909 37.0047 22.3893 37.0933 22.6771C37.2039 22.9427 37.3368 23.153 37.4917 23.3079C37.6466 23.4628 37.8237 23.5514 38.0229 23.5735C38.2221 23.6178 38.4214 23.6399 38.6206 23.6399ZM54.9892 28.4874C54.6351 28.4874 54.292 28.4432 53.96 28.3546C53.6501 28.2661 53.3623 28.1111 53.0967 27.8898C52.8532 27.6685 52.654 27.3696 52.4991 26.9933C52.3663 26.617 52.2999 26.1412 52.2999 25.5656V15.3062H49.6105C48.9907 15.3062 48.4927 15.2508 48.1164 15.1402C47.7401 15.0074 47.4413 14.8414 47.2199 14.6421C47.0207 14.4208 46.8879 14.1773 46.8215 13.9117C46.7551 13.6239 46.7219 13.3141 46.7219 12.982C46.7219 12.7164 46.7551 12.4508 46.8215 12.1852C46.8879 11.8974 47.0207 11.654 47.2199 11.4547C47.4413 11.2334 47.7401 11.0563 48.1164 10.9235C48.4927 10.7907 48.9907 10.7243 49.6105 10.7243H52.2999V2.88859C52.2999 1.78185 52.5655 1.02927 53.0967 0.63084C53.6501 0.21028 54.2809 0 54.9892 0C55.3434 0 55.6754 0.0442696 55.9853 0.132809C56.3173 0.221348 56.6051 0.376291 56.8485 0.597639C57.092 0.818986 57.2912 1.11781 57.4462 1.4941C57.6011 1.87039 57.6786 2.33522 57.6786 2.88859V25.5656C57.6786 26.1412 57.6011 26.617 57.4462 26.9933C57.2912 27.3696 57.092 27.6685 56.8485 27.8898C56.6051 28.1111 56.3173 28.2661 55.9853 28.3546C55.6754 28.4432 55.3434 28.4874 54.9892 28.4874Z" fill="white" fill-opacity="0.5"/>
<path d="M85.0104 17.1987C84.0144 16.9774 83.0515 16.6453 82.1219 16.2026C81.1922 15.7599 80.2957 15.2508 79.4325 14.6753C78.5914 14.0777 77.8056 13.4358 77.0751 12.7496C76.3447 12.0634 75.6917 11.3662 75.1162 10.6579C74.5186 11.3441 73.8545 12.0192 73.1241 12.6832C72.3936 13.3473 71.63 13.967 70.8331 14.5425C70.0363 15.0959 69.2173 15.5829 68.3762 16.0034C67.5351 16.424 66.705 16.7449 65.886 16.9663C65.5761 17.0548 65.233 17.1212 64.8567 17.1655C64.5026 17.1876 64.1484 17.1655 63.7943 17.0991C63.418 17.0106 63.0638 16.8446 62.7318 16.6011C62.3998 16.3576 62.1563 15.9813 62.0014 15.4722C61.7579 14.6753 61.8243 14.0002 62.2006 13.4469C62.5769 12.8714 63.1745 12.4287 63.9935 12.1188C64.9453 11.7646 65.9192 11.3219 66.9153 10.7907C67.9113 10.2373 68.8078 9.62862 69.6047 8.96458C70.4236 8.30053 71.0877 7.58116 71.5968 6.80644C72.128 6.00959 72.4047 5.1906 72.4268 4.34948V3.0546C72.4268 2.50123 72.5043 2.0364 72.6593 1.66011C72.8142 1.28382 73.0134 0.984997 73.2569 0.763649C73.5225 0.542302 73.8213 0.387359 74.1533 0.298819C74.4854 0.21028 74.8285 0.166011 75.1826 0.166011C75.5368 0.166011 75.8799 0.21028 76.2119 0.298819C76.5439 0.387359 76.8317 0.542302 77.0751 0.763649C77.3408 0.984997 77.551 1.28382 77.706 1.66011C77.8609 2.0364 77.9384 2.50123 77.9384 3.0546V4.34948C77.9605 5.1906 78.1929 6.02066 78.6356 6.83964C79.1005 7.63649 79.6981 8.38907 80.4286 9.09739C81.159 9.78356 81.9891 10.4033 82.9187 10.9567C83.8484 11.4879 84.8112 11.8974 85.8073 12.1852C86.6484 12.4287 87.2793 12.816 87.6998 13.3473C88.1425 13.8785 88.2753 14.5536 88.0982 15.3726C87.899 16.2358 87.3899 16.8113 86.5709 17.0991C86.3275 17.1876 86.0729 17.243 85.8073 17.2651C85.5417 17.2872 85.2761 17.2651 85.0104 17.1987ZM63.4623 28.089C62.8425 28.089 62.3334 28.0226 61.935 27.8898C61.5365 27.757 61.2266 27.5799 61.0053 27.3586C60.784 27.1594 60.629 26.9159 60.5405 26.6281C60.4741 26.3625 60.4409 26.0969 60.4409 25.8313C60.4409 25.4992 60.4741 25.1894 60.5405 24.9016C60.629 24.636 60.784 24.3925 61.0053 24.1712C61.2266 23.9719 61.5365 23.8059 61.935 23.6731C62.3334 23.5625 62.8425 23.5071 63.4623 23.5071H86.5377C87.1575 23.5071 87.6666 23.5625 88.065 23.6731C88.4635 23.8059 88.7734 23.9719 88.9947 24.1712C89.2161 24.3925 89.3599 24.636 89.4263 24.9016C89.5149 25.1894 89.5591 25.4992 89.5591 25.8313C89.5591 26.0969 89.5149 26.3625 89.4263 26.6281C89.3599 26.9159 89.2161 27.1594 88.9947 27.3586C88.7734 27.5799 88.4635 27.757 88.065 27.8898C87.6666 28.0226 87.1575 28.089 86.5377 28.089H63.4623Z" fill="white" fill-opacity="0.5"/>
<path d="M107.893 28.4874C107.583 28.4874 107.284 28.4432 106.997 28.3546C106.709 28.2661 106.454 28.1111 106.233 27.8898C106.034 27.6685 105.868 27.3696 105.735 26.9933C105.602 26.617 105.536 26.1412 105.536 25.5656V2.88859C105.536 1.78185 105.768 1.02927 106.233 0.63084C106.72 0.21028 107.273 0 107.893 0C108.491 0 109.022 0.21028 109.487 0.63084C109.974 1.02927 110.217 1.78185 110.217 2.88859V10.5251H113.338V2.88859C113.338 1.78185 113.571 1.02927 114.036 0.63084C114.523 0.21028 115.076 0 115.696 0C116.293 0 116.825 0.21028 117.289 0.63084C117.776 1.02927 118.02 1.78185 118.02 2.88859V25.5656C118.02 26.1412 117.953 26.617 117.821 26.9933C117.688 27.3696 117.511 27.6685 117.289 27.8898C117.09 28.1111 116.847 28.2661 116.559 28.3546C116.271 28.4432 115.983 28.4874 115.696 28.4874C115.386 28.4874 115.087 28.4432 114.799 28.3546C114.511 28.2661 114.257 28.1111 114.036 27.8898C113.836 27.6685 113.67 27.3696 113.538 26.9933C113.405 26.617 113.338 26.1412 113.338 25.5656V15.107H110.217V25.5656C110.217 26.1412 110.151 26.617 110.018 26.9933C109.885 27.3696 109.708 27.6685 109.487 27.8898C109.288 28.1111 109.044 28.2661 108.756 28.3546C108.469 28.4432 108.181 28.4874 107.893 28.4874ZM94.1143 27.6574C93.4945 27.6574 93.0076 27.591 92.6534 27.4582C92.2993 27.3475 92.0226 27.1815 91.8234 26.9601C91.6463 26.7609 91.5356 26.5174 91.4913 26.2297C91.4471 25.9641 91.4249 25.6653 91.4249 25.3332V2.72258C91.4249 2.39055 91.4471 2.09174 91.4913 1.82612C91.5356 1.53837 91.6463 1.29488 91.8234 1.09567C92.0226 0.874323 92.2993 0.708312 92.6534 0.597639C93.0076 0.464831 93.4945 0.398426 94.1143 0.398426H99.6591C100.279 0.398426 100.788 0.464831 101.186 0.597639C101.585 0.708312 101.895 0.874323 102.116 1.09567C102.337 1.29488 102.481 1.53837 102.548 1.82612C102.636 2.09174 102.68 2.39055 102.68 2.72258C102.68 2.98819 102.636 3.26488 102.548 3.55263C102.481 3.81825 102.337 4.06173 102.116 4.28308C101.895 4.48229 101.585 4.6483 101.186 4.78111C100.788 4.91392 100.279 4.98032 99.6591 4.98032H96.4717V11.7204H99.7587C100.378 11.7204 100.888 11.7868 101.286 11.9196C101.684 12.0302 101.994 12.1963 102.216 12.4176C102.437 12.6168 102.581 12.8603 102.647 13.148C102.736 13.4137 102.78 13.7125 102.78 14.0445C102.78 14.3101 102.736 14.5868 102.647 14.8746C102.581 15.1402 102.437 15.3837 102.216 15.605C101.994 15.8042 101.684 15.9702 101.286 16.103C100.888 16.2358 100.378 16.3023 99.7587 16.3023H96.4717V23.0755H100.323C100.943 23.0755 101.452 23.1419 101.85 23.2747C102.249 23.4075 102.559 23.5735 102.78 23.7727C103.001 23.9941 103.145 24.2376 103.212 24.5032C103.3 24.7909 103.345 25.0676 103.345 25.3332C103.345 25.6653 103.3 25.9641 103.212 26.2297C103.145 26.5174 103.001 26.7609 102.78 26.9601C102.559 27.1815 102.249 27.3475 101.85 27.4582C101.452 27.591 100.943 27.6574 100.323 27.6574H94.1143Z" fill="white" fill-opacity="0.5"/>
<path d="M125.397 17.2319C124.777 17.2319 124.268 17.1655 123.87 17.0327C123.471 16.8999 123.162 16.7339 122.94 16.5347C122.719 16.3133 122.564 16.0698 122.475 15.8042C122.409 15.5165 122.376 15.2398 122.376 14.9742C122.376 14.6421 122.409 14.3433 122.475 14.0777C122.564 13.79 122.719 13.5465 122.94 13.3473C123.162 13.1259 123.471 12.9599 123.87 12.8492C124.268 12.7164 124.777 12.65 125.397 12.65H126.825V4.94712H125.563C124.943 4.94712 124.434 4.88071 124.036 4.74791C123.638 4.6151 123.328 4.44909 123.106 4.24987C122.885 4.02853 122.73 3.78504 122.641 3.51943C122.575 3.23167 122.542 2.95499 122.542 2.68937C122.542 2.35735 122.575 2.05853 122.641 1.79292C122.73 1.50516 122.885 1.26168 123.106 1.06247C123.328 0.841121 123.638 0.675111 124.036 0.564437C124.434 0.431628 124.943 0.365223 125.563 0.365223H145.319C145.938 0.365223 146.447 0.431628 146.846 0.564437C147.244 0.675111 147.554 0.841121 147.775 1.06247C147.997 1.26168 148.141 1.50516 148.207 1.79292C148.296 2.05853 148.34 2.35735 148.34 2.68937C148.34 2.95499 148.296 3.23167 148.207 3.51943C148.141 3.78504 147.997 4.02853 147.775 4.24987C147.554 4.44909 147.244 4.6151 146.846 4.74791C146.447 4.88071 145.938 4.94712 145.319 4.94712H144.057V12.65H145.485C146.104 12.65 146.613 12.7164 147.012 12.8492C147.41 12.9599 147.72 13.1259 147.941 13.3473C148.163 13.5465 148.307 13.79 148.373 14.0777C148.462 14.3433 148.506 14.6421 148.506 14.9742C148.506 15.2398 148.462 15.5165 148.373 15.8042C148.307 16.0698 148.163 16.3133 147.941 16.5347C147.72 16.7339 147.41 16.8999 147.012 17.0327C146.613 17.1655 146.104 17.2319 145.485 17.2319H125.397ZM123.903 28.089C123.283 28.089 122.774 28.0226 122.376 27.8898C121.977 27.757 121.668 27.5799 121.446 27.3586C121.225 27.1594 121.07 26.9159 120.981 26.6281C120.915 26.3625 120.882 26.0969 120.882 25.8313C120.882 25.4992 120.915 25.1894 120.981 24.9016C121.07 24.636 121.225 24.3925 121.446 24.1712C121.668 23.9719 121.977 23.8059 122.376 23.6731C122.774 23.5625 123.283 23.5071 123.903 23.5071H146.979C147.598 23.5071 148.107 23.5625 148.506 23.6731C148.904 23.8059 149.214 23.9719 149.436 24.1712C149.657 24.3925 149.801 24.636 149.867 24.9016C149.956 25.1894 150 25.4992 150 25.8313C150 26.0969 149.956 26.3625 149.867 26.6281C149.801 26.9159 149.657 27.1594 149.436 27.3586C149.214 27.5799 148.904 27.757 148.506 27.8898C148.107 28.0226 147.598 28.089 146.979 28.089H123.903ZM138.678 12.65V4.94712H132.204V12.65H138.678Z" fill="white" fill-opacity="0.5"/>
</svg>
